<svg id="SvgjsSvg1001" width="288" height="288" xmlns="http://www.w3.org/2000/svg" version="1.1" xmlns:xlink="http://www.w3.org/1999/xlink" xmlns:svgjs="http://svgjs.com/svgjs"><defs id="SvgjsDefs1002"></defs><g id="SvgjsG1008" transform="matrix(1,0,0,1,0,0)"><svg xmlns="http://www.w3.org/2000/svg" width="288" height="288" viewBox="0 0 139.389 139.433"><g data-name="Group 38" transform="translate(-477.818 -52.945)" fill="#db1e22" class="color000 svgShape"><path fill="#db1e22" fill-rule="evenodd" d="M480.184,108.78c-2.32-.116-2.32-.116-2.32-2.512,0-3.047-.013-6.1,0-9.142a6.871,6.871,0,0,1,6.974-6.969q13.932-.021,27.863,0a6.855,6.855,0,0,1,6.96,6.98q.023,14.44.005,28.88v1.574c1.907-.468,3.768-.2,5.8-.311-1.7-3.036-1.131-6.3-1.142-9.475-.044-12.527-.024-25.058,0-37.586a2.84,2.84,0,0,0-.8-2.183c-1.576-1.646-2.032-3.741-2.234-5.963-.287-3.172-.864-6.341.251-9.46,2.064-5.771,6.262-8.874,12.268-9.56A14.034,14.034,0,0,1,549.723,64.9c.27,1.522.644,3.229-1.267,4.185-.63.314-.063.661.1.91.993,1.542,2.039,3.05,3.033,4.591,1.086,1.682.729,2.993-1.029,3.929a5.805,5.805,0,0,1-.65.315c-1.495.563-2.59,1.226-2.505,3.234a5.131,5.131,0,0,1-2.155,3.954c-.551.452-.563.7-.11,1.225q5.035,5.81,10.006,11.675a1.7,1.7,0,0,0,1.542.528c5.078,0,10.159.082,15.236-.034a20.859,20.859,0,0,1,7.914,1.311c2.293.855,4.637,1.574,7.087,2.4.183-1.605.209-2.91-.953-4.187-1.817-2-3.418-4.192-5.08-6.328a1.38,1.38,0,0,0-1.807-.525,8.144,8.144,0,1,1-4.21-15.712,8.175,8.175,0,0,1,9.717,6.5,7.184,7.184,0,0,1-.548,4.67,1.486,1.486,0,0,0,.3,1.892c2.063,2.494,3.988,5.106,6.1,7.554a5.194,5.194,0,0,1,1.221,4.136c-.061.694,0,1.013.917.831a27.918,27.918,0,0,1,6.364-.142,1.978,1.978,0,0,1,1.986,2.1q.066,8.272.007,16.544a2.165,2.165,0,0,1-2.349,2.211c-1.934.034-3.87.05-5.8-.01-.847-.026-1.189.129-1.143,1.083.159,3.232-.3,6.494.234,9.7a9.139,9.139,0,0,0,8.626,7.793c2.163.18,2.771.831,2.773,2.992,0,1.838.025,3.677-.011,5.514-.015.7.151,1.018.92,1.128a15.618,15.618,0,0,1,4.6,1.637c.983.482,1.306.958.48,1.851a4.6,4.6,0,0,0-.51.861c-1.327,1.721-1.321,1.7-3.421.871a12.54,12.54,0,0,0-2.075-.611,27.824,27.824,0,0,0-7.8-.214,15.929,15.929,0,0,0-14.066,9.847,19.593,19.593,0,0,0-1.344,8.938c.041,1.4-.463,3.256.243,4.059.815.925,2.729.164,4.151.324a1.991,1.991,0,0,0,2.08-1.14c2.475-3.807,5.032-7.559,7.524-11.354a2.971,2.971,0,0,1,2.768-1.475c3.384.052,6.77.019,10.154.017l5.264,0a6.718,6.718,0,0,0-1.369-3.57c-1.179-1.367-1.127-2.412.34-3.417,2.093-1.633,2.106-1.641,3.537.658,1.479,2.378,2.8,5.045,2.344,7.752-.623,3.7.585,7.29-.092,10.966a18.908,18.908,0,0,1-14.551,15.133,18.608,18.608,0,0,1-19.209-7.838,2.008,2.008,0,0,0-2.059-1.126,29.455,29.455,0,0,1-3.336.017,2.231,2.231,0,0,1-2.428-2.433c-.027-2.013-.007-4.026-.007-6.323-1.039,1.112-1.857,2.036-2.725,2.909a11.425,11.425,0,0,1-8.437,3.532c-12.529-.008-25.059.01-37.588-.026a1.834,1.834,0,0,0-1.91,1.21c-3.573,6.784-9.207,10.46-16.913,10.381-7.588-.076-13.081-3.816-16.537-10.518a1.6,1.6,0,0,0-1.708-1.071c-3,.058-6,.029-9,.02-1.918-.007-2.734-.818-2.723-2.724a31.819,31.819,0,0,1,4.024-15.354,4.788,4.788,0,0,0,.631-2.466c-.042-3.046-.021-6.1-.014-9.143,0-2.031.773-2.816,2.768-2.825,2.032-.008,4.074-.128,6.094.025a25.843,25.843,0,0,0,11.3-1.739c.564-.214.8-.446.739-1.014a1.417,1.417,0,0,1,0-.146c-.026-1.447.484-3.3-.223-4.232-.776-1.021-2.771-.738-4.233-1.017-5.732-1.083-11.479-2.079-17.206-3.182a4.476,4.476,0,0,1-3.882-4.815c-.009-5.66.056-11.32-.042-16.979-.026-1.46.338-2.02,1.785-1.746a4.328,4.328,0,0,1,1.152,0c1.507-.292,1.826.377,1.784,1.8-.105,3.625,0,7.255-.059,10.881-.018,1.02.267,1.291,1.286,1.287q15.018-.057,30.034-.006c.908,0,1.246-.188,1.241-1.18q-.066-10.448,0-20.894c.005-.987-.324-1.188-1.236-1.187q-15.018.045-30.034,0c-1.014-.006-1.434.258-1.273,1.282a5.722,5.722,0,0,1,.006.869C482.51,108.662,482.51,108.662,480.184,108.78Zm62.149,32.468h-30.91c-3.452,0-3.422,0-3.389,3.516.009.873.215,1.167,1.129,1.15,3.145-.057,6.29-.022,9.436-.022,3.47,0,3.427,0,3.42,3.488,0,1-.352,1.186-1.251,1.176-3.919-.042-7.84.068-11.756-.045A20.673,20.673,0,0,0,500,152.3c-9.645,4.229-15.317,11.6-17.166,21.936-.328,1.831-.264,1.845,1.586,1.845q39.553,0,79.106.016a7.957,7.957,0,0,0,6.4-2.8c1.65-1.9,3.347-3.757,5.07-5.589a5.632,5.632,0,0,0,1.315-2.349,20.923,20.923,0,0,1,19.247-14.826c3.078-.04,3.025-.041,3.1-3.226.027-1.128-.233-1.643-1.413-1.962a13.766,13.766,0,0,1-10.226-13.371c-.006-2.468.008-4.936-.01-7.4,0-.413.227-.983-.169-1.21-.473-.272-.894.227-1.271.479A6.99,6.99,0,0,0,582.377,130c-.012,5.662-.061,11.323.019,16.982a10.22,10.22,0,0,1-3.222,7.776q-6.762,6.684-13.445,13.446a10.519,10.519,0,0,1-7.911,3.271c-14.708-.048-29.416-.021-44.125-.021-3.366,0-3.319,0-3.344-3.423-.008-1.057.339-1.266,1.317-1.258,5.467.044,10.936.025,16.4.014.456,0,.944.145,1.358-.118.02-.092.053-.149.034-.178-.125-.205-.256-.408-.392-.6a13.371,13.371,0,0,1-1.945-11.6c1.532-5.624,5.405-8.727,11.024-9.789A5.66,5.66,0,0,0,542.333,141.248Zm-13.374-39.455c0,4.255.008,8.51-.008,12.764,0,.69-.008,1.177.954,1.164,4.013-.049,8.026-.041,12.039,0,.793.007.975-.285.962-1.014-.042-2.174-.053-4.351-.011-6.525a1.915,1.915,0,0,0-.736-1.48q-2.78-2.758-5.541-5.537c-2.412-2.427-2.374-2.4-.026-4.8.764-.782,1.185-.769,1.942.006,3.755,3.835,7.59,7.591,11.348,11.421a3.021,3.021,0,0,0,2.407.97c5.8-.043,11.6-.021,17.406-.021,3.466,0,3.424,0,3.416-3.488,0-1-.353-1.18-1.25-1.173-5.463.034-10.928-.028-16.391.046a4.078,4.078,0,0,1-3.477-1.623c-3.919-4.661-7.923-9.251-11.861-13.9a1.98,1.98,0,0,0-1.723-.781c-2.755.038-5.513.055-8.267-.007-.962-.021-1.216.277-1.206,1.218C528.985,93.282,528.959,97.537,528.959,101.793Zm18.58,10.129a23.062,23.062,0,0,1-.018,2.55c-.136,1.038.254,1.28,1.261,1.255,2.852-.074,5.706-.033,8.56-.025A13.518,13.518,0,0,1,570.049,134.1c-.9,2.384-1.943,4.713-2.919,7.069q-3.176,7.665-6.343,15.335c-.166.4-.781.981.138,1.221a7.431,7.431,0,0,1,4.646,3.837,1.675,1.675,0,0,0,.291-.168c3.354-3.35,6.686-6.72,10.066-10.04a5.773,5.773,0,0,0,1.812-4.4c-.033-4.738.029-9.479-.024-14.217-.039-3.492-.111-6.965,2.243-9.966-4.7-.655-7.53-4.069-6.781-8.214.214-1.185-.108-1.2-1.047-1.192-7.061.032-14.121.007-21.182.027C549.729,113.393,548.544,113.409,547.539,111.922Zm-2.477,15.391c3.819,0,7.64-.013,11.46.006,2.1.01,3.068,1.37,2.4,3.372-.366,1.1-.8,2.172-1.215,3.253-2.889,7.517-5.766,15.038-8.688,22.543-.369.949-.027,1.047.777,1.028,1.5-.036,3-.05,4.5.005a1.26,1.26,0,0,0,1.371-.968q4.823-11.707,9.7-23.391a9.429,9.429,0,0,0,.532-6.223,8.737,8.737,0,0,0-8.667-6.584c-6.963-.027-13.926-.008-20.889-.008-2.08,0-4.159-.007-6.238,0-.5,0-1.025-.135-1.156.7-.569,3.59,1.618,6.251,5.234,6.261S541.436,127.313,545.062,127.313Zm2.142,4.693a7.4,7.4,0,0,1-.024,4.58c-.123.371-.281.658-.015,1.065a3.875,3.875,0,0,1,.236,3.091c-1.1,5.012-4.359,7.682-9.313,8.62-4.985.947-7.359,5.641-6.672,9.991.728,4.6,4.172,7.4,8.9,7.44,2.579.023,2.531.021,2.593-2.5.056-2.246-.3-4.5.607-6.717,1.763-4.315,3.387-8.687,5.063-13.038,1.6-4.158,3.191-8.321,4.808-12.532Zm-2.422-67.4a6.3,6.3,0,0,0-.116-.652,9.366,9.366,0,0,0-9.675-6.295c-4.819.263-8.463,3.247-9.255,7.473-.458,2.438.19,4.8.324,7.191a3.774,3.774,0,1,0,7.536-.2c.029-1.593,0-3.188.009-4.78.014-1.909.822-2.729,2.726-2.737C539.126,64.6,541.92,64.607,544.782,64.607Zm62.085,104.53c.242.667.415,1.112.567,1.565a9.334,9.334,0,0,1-14.377,10.535c-.792-.562-1.331-1.982-2.218-1.677-.774.268-1.09,1.657-1.807,2.345-.984.941-.483,1.452.253,2.134a13.89,13.89,0,0,0,22.869-13.464c-.26-1.068-.654-1.576-1.824-1.461C609.231,169.22,608.115,169.137,606.867,169.137Zm-108.1-69.694c4.98,0,9.96-.021,14.94.02.944.008,1.36-.14,1.34-1.231-.049-2.655-.76-3.432-3.453-3.432q-12.909,0-25.821,0c-2.5,0-3.226.792-3.294,3.3-.03,1.07.239,1.39,1.348,1.376C488.811,99.407,493.791,99.443,498.771,99.443Zm36.287-16.256c1.737,0,3.475.023,5.211-.007a2.388,2.388,0,0,0,2.621-2.6c.021-.626.018-1.254,0-1.882a2.355,2.355,0,0,1,1.417-2.312,11.707,11.707,0,0,1,1.286-.646c.741-.264.806-.593.346-1.229a18.937,18.937,0,0,1-2.528-3.851c-.531-1.329-1.295-1.445-2.464-1.418-2.672.063-2.672.02-2.7,2.714-.049,5.221-3.24,8.639-8.418,8.87-1.051.047-.859.6-.872,1.2-.012.622-.154,1.234.889,1.181C531.579,83.123,533.32,83.187,535.058,83.187ZM531.283,136.6c2.85,0,5.7.006,8.55,0,1.908-.006,3.075-.921,3.043-2.359-.032-1.4-1.159-2.278-2.977-2.28q-8.622-.012-17.245,0c-1.814,0-2.941.888-2.969,2.285-.028,1.441,1.134,2.349,3.047,2.354C525.583,136.609,528.433,136.6,531.283,136.6Zm-48.9-4.646a2.426,2.426,0,0,0,1.488.6c2.939.524,5.865,1.119,8.812,1.584,6.313,1,12.5,2.84,19.009,2.492,3.34-.178,3.294-.031,3.361-3.372.021-1.1-.271-1.334-1.344-1.329-10,.045-20,.026-30.007.026Zm37.684,48.771c-1.784,0-3.231.03-4.678-.012a3.179,3.179,0,0,0-2,.636c-3.15,2.166-6.607,2.519-9.783.484-2.444-1.567-4.834-.857-7.374-1.107,1.892,4.025,7.062,7.08,11.9,6.938A13.9,13.9,0,0,0,520.068,180.729Zm33.6-18.555h-2.6c-3.707,0-3.707,0-3.506,3.743a1.844,1.844,0,0,1,0,.288c-.04.447.188.572.6.57,3.667-.021,7.336.033,11-.075a2.207,2.207,0,0,0,2.276-2.309,2.356,2.356,0,0,0-2.555-2.212C557.146,162.152,555.409,162.174,553.672,162.174Zm42.637-49.959v-3.627c0-2.381-.151-2.511-2.519-2.118-.238.04-.465.147-.7.175-1.116.124-1.5.7-1.45,1.841.1,2.026.027,4.06.027,6.092,0,3.562,0,3.521,3.576,3.474.963-.014,1.109-.374,1.083-1.194C596.272,115.311,596.309,113.763,596.309,112.215ZM576.685,80.891a3.455,3.455,0,1,0,3.335,3.534A3.559,3.559,0,0,0,576.685,80.891Zm10.335,32.847c0-1.586-.021-3.172.01-4.758a.981.981,0,0,0-.782-1.153c-2.566-.813-5.111-1.7-7.666-2.553-.483-.161-.916-.306-.866.531.063,1.052.015,2.111.015,3.183C582.535,108.295,585,109.608,587.02,113.738Zm10.63,55.333c-.526.782-.982,1.454-1.434,2.132-1.6,2.392-1.6,2.392.57,4.317a2.544,2.544,0,1,0,3.626-3.569C599.536,170.984,598.608,170.066,597.65,169.071Zm-17.606-51.064a2.309,2.309,0,1,0-2.3-2.348A2.5,2.5,0,0,0,580.044,118.007Zm-90.282,35c-2.8-.29-2.828-.263-2.4,2.18Z" data-name="Path 1020" class="color060404 svgShape"></path><path fill="#db1e22" fill-rule="evenodd" d="M480.184,108.78c2.326-.118,2.326-.118,2.326-2.562a5.722,5.722,0,0,0-.006-.869c-.161-1.024.259-1.288,1.273-1.282q15.016.054,30.034,0c.912,0,1.241.2,1.236,1.187q-.066,10.446,0,20.894c.005.991-.333,1.183-1.241,1.18q-15.016-.042-30.034.006c-1.019,0-1.3-.268-1.286-1.287.062-3.626-.046-7.256.059-10.881.042-1.421-.277-2.09-1.784-1.8a2.272,2.272,0,0,1-.577-.038Q480.184,111.055,480.184,108.78ZM491.8,115.7V112.22c0-3.576,0-3.544-3.523-3.51-.876.008-1.159.225-1.144,1.131.055,3.137.021,6.274.021,9.412,0,3.542,0,3.516,3.6,3.436.807-.019,1.091-.223,1.068-1.057C491.762,119.654,491.8,117.675,491.8,115.7Z" data-name="Path 1021" class="colord55246 svgShape"></path><path fill="#db1e22" fill-rule="evenodd" d="M611.207,157.485c-1.467,1.005-1.519,2.05-.34,3.417a6.716,6.716,0,0,1,1.369,3.57l-5.264,0c-3.385,0-6.771.035-10.154-.017a2.968,2.968,0,0,0-2.768,1.475c-2.492,3.795-5.05,7.547-7.524,11.354a1.992,1.992,0,0,1-2.08,1.14c-1.423-.16-3.336.6-4.151-.324-.706-.8-.2-2.664-.243-4.059A19.593,19.593,0,0,1,581.4,165.1a15.93,15.93,0,0,1,14.066-9.847,27.823,27.823,0,0,1,7.8.214,12.638,12.638,0,0,1,2.075.611c2.1.833,2.094.85,3.421-.871A12.342,12.342,0,0,1,611.207,157.485Z" data-name="Path 1022" class="colord55246 svgShape"></path><path fill="#db1e22" fill-rule="evenodd" d="M542.333,141.248a5.656,5.656,0,0,1-4.183,3.243c-5.619,1.063-9.492,4.165-11.024,9.789a13.374,13.374,0,0,0,1.945,11.6c.136.2.267.4.392.6.019.028-.015.086-.034.178-.414.263-.9.116-1.358.118-5.467.012-10.936.03-16.4-.014-.979-.008-1.325.2-1.317,1.258.024,3.423-.022,3.423,3.344,3.423,14.709,0,29.417-.026,44.125.021a10.516,10.516,0,0,0,7.911-3.271q6.681-6.765,13.445-13.446a10.221,10.221,0,0,0,3.222-7.776c-.079-5.659-.03-11.32-.019-16.982a7,7,0,0,1,3.191-6.154c.378-.253.8-.752,1.271-.479.4.227.165.8.169,1.21.018,2.467,0,4.935.01,7.4a13.764,13.764,0,0,0,10.226,13.371c1.18.319,1.44.834,1.413,1.962-.076,3.185-.023,3.186-3.1,3.226a20.923,20.923,0,0,0-19.247,14.826A5.655,5.655,0,0,1,575,167.712c-1.724,1.832-3.42,3.69-5.07,5.589a7.958,7.958,0,0,1-6.4,2.8q-39.554-.034-79.106-.016c-1.85,0-1.914-.014-1.586-1.845C484.686,163.9,490.359,156.532,500,152.3a20.671,20.671,0,0,1,9.011-1.793c3.916.113,7.837,0,11.756.045.9.01,1.249-.175,1.251-1.176.007-3.488.05-3.488-3.42-3.488-3.146,0-6.291-.034-9.436.022-.914.017-1.12-.277-1.129-1.15-.033-3.516-.063-3.516,3.389-3.516h30.907Zm-42.4,21.309a1.6,1.6,0,0,0-.12-.262q-.681-1.021-1.372-2.036c-.992-1.459-1.009-1.478-2.412-.333a23.65,23.65,0,0,0-5.5,6.269c-1.125,1.9-1.13,1.9.9,2.874.434.209.889.379,1.3.624.659.393,1.057.355,1.46-.416a18.473,18.473,0,0,1,5.14-5.981C499.584,163.1,499.94,162.976,499.931,162.557Zm7.423-3.286c-.225-1.18-.446-2.361-.675-3.539-.059-.3-.175-.593-.55-.52a13.077,13.077,0,0,0-3.979,1.229c-.754.427-.071,1.207.2,1.638.538.872.225,2.485,1.634,2.546a10.365,10.365,0,0,0,3.039-.819A.419.419,0,0,0,507.354,159.271Z" data-name="Path 1023" class="colord55246 svgShape"></path><path fill="#db1e22" fill-rule="evenodd" d="M528.959,101.793c0-4.256.026-8.511-.021-12.765-.01-.94.244-1.239,1.206-1.218,2.754.062,5.512.045,8.267.007a1.982,1.982,0,0,1,1.723.781c3.938,4.646,7.942,9.235,11.861,13.9a4.074,4.074,0,0,0,3.477,1.623c5.463-.074,10.928-.012,16.391-.046.9-.007,1.248.173,1.25,1.173.008,3.488.05,3.488-3.416,3.488-5.8,0-11.6-.022-17.406.021a3.021,3.021,0,0,1-2.407-.97c-3.758-3.83-7.593-7.586-11.348-11.421-.758-.774-1.179-.788-1.942-.006-2.348,2.4-2.386,2.376.026,4.8q2.762,2.781,5.541,5.537a1.917,1.917,0,0,1,.736,1.48c-.042,2.175-.031,4.352.011,6.525.013.729-.169,1.021-.962,1.014-4.013-.037-8.026-.045-12.039,0-.962.013-.957-.474-.954-1.164C528.967,110.3,528.959,106.048,528.959,101.793Z" data-name="Path 1024" class="colord55246 svgShape"></path><path fill="#db1e22" fill-rule="evenodd" d="M545.062,127.313c-3.626,0-7.253.008-10.88,0s-5.8-2.671-5.234-6.261c.131-.832.652-.695,1.156-.7,2.079-.012,4.158,0,6.238,0,6.963,0,13.926-.02,20.889.008a8.737,8.737,0,0,1,8.667,6.584,9.442,9.442,0,0,1-.532,6.223q-4.876,11.685-9.7,23.391a1.26,1.26,0,0,1-1.371.968c-1.5-.055-3-.041-4.5-.005-.8.019-1.146-.079-.777-1.028,2.923-7.505,5.8-15.026,8.688-22.543.415-1.081.849-2.155,1.215-3.253.669-2-.3-3.362-2.4-3.372C552.7,127.3,548.881,127.313,545.062,127.313Z" data-name="Path 1025" class="color7a442b svgShape"></path><path fill="#db1e22" fill-rule="evenodd" d="M544.782,64.607c-2.862,0-5.656-.01-8.451,0-1.9.009-2.712.828-2.726,2.737-.012,1.593.021,3.188-.009,4.78a3.774,3.774,0,1,1-7.536.2c-.134-2.395-.782-4.753-.324-7.191.792-4.226,4.436-7.21,9.255-7.473a9.367,9.367,0,0,1,9.675,6.295A6.168,6.168,0,0,1,544.782,64.607Z" data-name="Path 1026" class="colord55246 svgShape"></path><path fill="#db1e22" fill-rule="evenodd" d="M606.867,169.137c1.248,0,2.364.083,3.463-.023,1.17-.115,1.564.393,1.824,1.461a13.89,13.89,0,0,1-22.869,13.464c-.736-.682-1.237-1.192-.253-2.134.717-.688,1.032-2.077,1.807-2.345.887-.306,1.426,1.115,2.218,1.677A9.334,9.334,0,0,0,607.434,170.7C607.282,170.249,607.109,169.8,606.867,169.137Z" data-name="Path 1027" class="color34507b svgShape"></path><path fill="#db1e22" fill-rule="evenodd" d="M498.771,99.443c-4.98,0-9.961-.036-14.94.028-1.109.014-1.377-.306-1.348-1.376.068-2.5.79-3.295,3.294-3.3q12.909,0,25.821,0c2.693,0,3.4.776,3.453,3.432.021,1.092-.4,1.239-1.34,1.231C508.731,99.422,503.752,99.443,498.771,99.443Z" data-name="Path 1028" class="colord55246 svgShape"></path><path fill="#db1e22" fill-rule="evenodd" d="M535.058,83.187c-1.737,0-3.479-.063-5.211.023-1.043.054-.9-.559-.889-1.181.013-.6-.179-1.153.872-1.2,5.178-.231,8.369-3.649,8.418-8.87.026-2.694.026-2.651,2.7-2.714,1.169-.027,1.933.089,2.464,1.418a19.033,19.033,0,0,0,2.528,3.851c.46.636.4.965-.346,1.229a11.538,11.538,0,0,0-1.286.646,2.354,2.354,0,0,0-1.417,2.312c.018.628.021,1.256,0,1.882a2.389,2.389,0,0,1-2.621,2.6C538.532,83.21,536.795,83.187,535.058,83.187Z" data-name="Path 1029" class="colorfac7a2 svgShape"></path><path fill="#db1e22" fill-rule="evenodd" d="M531.283,136.6c-2.851,0-5.7.006-8.551,0-1.913-.006-3.075-.913-3.047-2.354.027-1.4,1.154-2.282,2.969-2.285q8.624-.012,17.245,0c1.817,0,2.944.884,2.977,2.28.032,1.438-1.135,2.354-3.043,2.359C536.982,136.609,534.133,136.6,531.283,136.6Z" data-name="Path 1030" class="color34507b svgShape"></path><path fill="#db1e22" fill-rule="evenodd" d="M520.068,180.729a13.907,13.907,0,0,1-11.937,6.939c-4.84.142-10.01-2.913-11.9-6.938,2.54.25,4.93-.46,7.374,1.107,3.176,2.034,6.633,1.682,9.783-.484a3.179,3.179,0,0,1,2-.636C516.837,180.76,518.284,180.729,520.068,180.729Z" data-name="Path 1031" class="color34507b svgShape"></path><path fill="#fefefe" fill-rule="evenodd" d="M553.672,162.174c1.737,0,3.475-.021,5.212.006a2.356,2.356,0,0,1,2.555,2.212,2.208,2.208,0,0,1-2.276,2.309c-3.663.108-7.332.054-11,.075-.414,0-.642-.123-.6-.57a1.852,1.852,0,0,0,0-.288c-.2-3.743-.2-3.743,3.506-3.743Z" data-name="Path 1032" class="colorfefefe svgShape"></path><path fill="#db1e22" fill-rule="evenodd" d="M596.309,112.215c0,1.548-.036,3.1.016,4.642.026.82-.12,1.181-1.083,1.194-3.576.047-3.576.088-3.576-3.474,0-2.032.068-4.065-.027-6.092-.054-1.145.334-1.717,1.45-1.841.237-.027.464-.135.7-.175,2.367-.393,2.519-.263,2.519,2.118Q596.309,110.4,596.309,112.215Z" data-name="Path 1033" class="colord55246 svgShape"></path><path fill="#fefefe" fill-rule="evenodd" d="M576.685,80.891a3.455,3.455,0,1,1-3.565,3.3A3.559,3.559,0,0,1,576.685,80.891Z" data-name="Path 1034" class="colorfefefe svgShape"></path><path fill="#db1e22" fill-rule="evenodd" d="M587.02,113.738c-2.021-4.13-4.484-5.443-9.29-4.75,0-1.071.049-2.131-.015-3.183-.05-.837.383-.692.866-.531,2.555.854,5.1,1.739,7.666,2.553a.981.981,0,0,1,.782,1.153C587,110.566,587.02,112.152,587.02,113.738Z" data-name="Path 1035" class="colorfac7a2 svgShape"></path><path fill="#fefefe" fill-rule="evenodd" d="M597.65,169.071c.958.995,1.886,1.913,2.763,2.88a2.544,2.544,0,1,1-3.626,3.569c-2.166-1.926-2.166-1.926-.57-4.317C596.668,170.525,597.124,169.854,597.65,169.071Z" data-name="Path 1036" class="colorfefefe svgShape"></path><path fill="#db1e22" fill-rule="evenodd" d="M580.044,118.007a2.488,2.488,0,0,1-2.3-2.349,2.524,2.524,0,0,1,2.242-2.269,2.309,2.309,0,1,1,.061,4.618Z" data-name="Path 1037" class="color34507b svgShape"></path><path fill="#db1e22" fill-rule="evenodd" d="M489.762,153l-2.4,2.18C486.934,152.74,486.964,152.713,489.762,153Z" data-name="Path 1038" class="colord55246 svgShape"></path><path fill="#db1e22" fill-rule="evenodd" d="M491.8,115.7c0,1.979-.038,3.958.017,5.937.023.834-.261,1.038-1.068,1.057-3.6.08-3.6.106-3.6-3.436,0-3.138.034-6.275-.021-9.412-.016-.906.267-1.123,1.144-1.131,3.524-.034,3.523-.066,3.523,3.51Q491.8,113.958,491.8,115.7Z" data-name="Path 1039" class="color060404 svgShape"></path><path fill="#db1e22" fill-rule="evenodd" d="M499.93,162.557c.011.419-.346.539-.6.738a18.471,18.471,0,0,0-5.14,5.981c-.4.771-.8.809-1.46.416-.411-.245-.866-.415-1.3-.624-2.028-.976-2.023-.974-.9-2.874a23.665,23.665,0,0,1,5.5-6.269c1.4-1.145,1.42-1.126,2.412.333q.69,1.016,1.372,2.036A1.647,1.647,0,0,1,499.93,162.557Z" data-name="Path 1040" class="color060404 svgShape"></path><path fill="#db1e22" fill-rule="evenodd" d="M507.354,159.271a.42.42,0,0,1-.336.535,10.365,10.365,0,0,1-3.039.819c-1.409-.061-1.1-1.674-1.634-2.546-.267-.431-.949-1.211-.2-1.638a13.03,13.03,0,0,1,3.979-1.229c.375-.073.491.22.55.52C506.908,156.909,507.13,158.091,507.354,159.271Z" data-name="Path 1041" class="color060404 svgShape"></path></g></svg></g></svg>